# xmcd
# 
# Track frame offsets:
#     150
#     19262
#     37228
#     54568
#     62481
#     70430
#     83698
#     105213
#     125541
#     145718
# 
# Disc length: 2206
# 
# Revision: 0
# Processed by: cddbd v1.5.2PL0 Copyright (c) Steve Scherf et al.
# Submitted via: fre:ac v1.0.27
# 
DISCID=85089c0a
DTITLE=Jonathan Rimberg - Chanukah! Your Favorite Songs
DYEAR=2002
DGENRE=Jewish
TTITLE0=Al Hanisim
TTITLE1=S'vivon - I Have a Little Draydel
TTITLE2=Chanukah oh Chanukah
TTITLE3=Blessings
TTITLE4=Haneirot Hallalu
TTITLE5=Maoz Tzur - Rock of Ages
TTITLE6=The Chanukah Song
TTITLE7=Mi Yemalel
TTITLE8=Shehecheyanu
TTITLE9=Chnukah Chag Yafeh - Bashana
EXTD=
EXTT0=
EXTT1=
EXTT2=
EXTT3=
EXTT4=
EXTT5=
EXTT6=
EXTT7=
EXTT8=
EXTT9=
PLAYORDER=
